<svg width="45" height="60" viewBox="0 0 45 60" fill="none" xmlns="http://www.w3.org/2000/svg">
<path d="M44.3128 43.3412V43.9818C44.3128 45.9428 42.7172 47.5323 40.7556 47.5323C31.9414 47.5323 29.9185 47.5322 29.3474 47.6072V47.5866C24.3245 48.4673 20.5608 52.7615 20.1556 58.0521C20.0661 58.2317 20.0592 58.4443 20.1418 58.6307C20.1418 58.6376 20.1418 58.6376 20.1418 58.6445V58.8509C19.6533 59.2645 16.7359 60 11.6648 60C6.64195 60 3.73143 59.2775 3.2085 58.8654C3.19474 58.0122 3.07777 56.2507 2.81631 55.4319C2.72686 55.1773 2.63053 54.9572 2.5342 54.737C2.26586 54.0964 1.8943 53.4634 1.44706 52.9067C1.41953 52.8723 1.39201 52.8448 1.36449 52.8173C1.33697 52.7898 1.31633 52.7622 1.29568 52.7416C0.999815 52.4044 0.73147 52.1292 0.490647 51.909C0.153495 51.2416 0.174137 50.7256 0.20854 49.5428C0.222301 49.1162 0.236062 48.6276 0.236062 48.0359V28.9125C0.236062 26.4768 1.10991 24.5158 2.67181 23.3736V29.635C2.67181 31.4859 4.1718 32.9859 6.01581 32.9859H6.24287C7.11672 32.9859 7.90799 32.6487 8.50661 32.1051V35.0989C8.50661 36.9429 10.0066 38.4422 11.8506 38.4422H12.0777C12.9515 38.4422 13.7565 38.1058 14.3552 37.5409V39.1784C14.3552 41.0225 15.8551 42.5224 17.6992 42.5224H17.9262C19.7702 42.5224 21.2702 41.0218 21.2702 39.1784V21.6878H21.2427C21.3253 20.9172 21.3184 18.736 21.3046 11.7866C21.2909 6.86001 21.2702 1.94722 21.2702 1.94722C21.2702 0.873843 22.1441 0 23.2243 0H23.7404C24.8413 0 25.7076 0.860081 25.7076 1.94722C25.6456 35.1877 25.7007 35.4767 25.722 35.573C26.0936 37.3138 27.3114 38.7663 28.9903 39.4743C29.2793 39.5775 29.5958 39.7014 29.9398 39.7564C29.9743 39.764 30.0087 39.764 30.0431 39.764L40.7556 39.7839C42.7165 39.7839 44.3128 41.3803 44.3128 43.3412Z" fill="#39E991"/>
</svg>
