<svg width="254" height="60" viewBox="0 0 254 60" fill="none" xmlns="http://www.w3.org/2000/svg">
<path d="M14.6595 18.8463V29.6626C14.6595 30.4539 14.0196 31.1007 13.2284 31.1007H13.0219C12.2307 31.1007 11.5839 30.4546 11.5839 29.6626V18.8463C11.5839 18.0412 12.2169 17.4082 13.0219 17.4082H13.2284C14.0334 17.4082 14.6595 18.0412 14.6595 18.8463Z" fill="#39E991"/>
<path d="M20.515 18.3096V35.126C20.515 35.9035 19.8544 36.5571 19.0769 36.5571H18.8498C18.0586 36.5571 17.4187 35.9165 17.4187 35.126V18.3096C17.4187 17.5046 18.0448 16.8716 18.8498 16.8716H19.0769C19.8682 16.8716 20.515 17.5184 20.515 18.3096Z" fill="#39E991"/>
<path d="M26.3429 17.7725V39.2058C26.3429 39.997 25.6961 40.6369 24.9117 40.6369H24.6846C23.8934 40.6369 23.2466 39.997 23.2466 39.2058V17.7725C23.2466 16.9813 23.8934 16.3345 24.6846 16.3345H24.9117C25.6961 16.3345 26.3429 16.9813 26.3429 17.7725Z" fill="#39E991"/>
<path d="M51.3128 43.3412V43.9818C51.3128 45.9428 49.7172 47.5323 47.7555 47.5323C38.9414 47.5323 36.9185 47.5322 36.3474 47.6072V47.5866C31.3245 48.4673 27.5608 52.7615 27.1555 58.0521C27.066 58.2317 27.0592 58.4443 27.1417 58.6307C27.1417 58.6376 27.1417 58.6376 27.1417 58.6445V58.8509C26.6532 59.2645 23.7358 60 18.6648 60C13.6419 60 10.7314 59.2775 10.2084 58.8654C10.1947 58.0122 10.0777 56.2507 9.81625 55.4319C9.7268 55.1773 9.63047 54.9572 9.53414 54.737C9.26579 54.0964 8.89424 53.4634 8.447 52.9067C8.41947 52.8723 8.39195 52.8448 8.36443 52.8173C8.33691 52.7898 8.31626 52.7622 8.29562 52.7416C7.99975 52.4044 7.73141 52.1292 7.49059 51.909C7.15343 51.2416 7.17408 50.7256 7.20848 49.5428C7.22224 49.1162 7.236 48.6276 7.236 48.0359V28.9125C7.236 26.4768 8.10984 24.5158 9.67175 23.3736V29.635C9.67175 31.4859 11.1717 32.9859 13.0158 32.9859H13.2428C14.1167 32.9859 14.9079 32.6487 15.5065 32.1051V35.0989C15.5065 36.9429 17.0065 38.4422 18.8505 38.4422H19.0776C19.9515 38.4422 20.7565 38.1058 21.3551 37.5409V39.1784C21.3551 41.0225 22.8551 42.5224 24.6991 42.5224H24.9262C26.7702 42.5224 28.2702 41.0218 28.2702 39.1784V21.6878H28.2426C28.3252 20.9172 28.3183 18.736 28.3046 11.7866C28.2908 6.86001 28.2702 1.94722 28.2702 1.94722C28.2702 0.873843 29.144 0 30.2243 0H30.7403C31.8412 0 32.7075 0.860081 32.7075 1.94722C32.6456 35.1877 32.7006 35.4767 32.7219 35.573C33.0935 37.3138 34.3114 38.7663 35.9903 39.4743C36.2792 39.5775 36.5958 39.7014 36.9398 39.7564C36.9742 39.764 37.0086 39.764 37.043 39.764L47.7555 39.7839C49.7165 39.7839 51.3128 41.3803 51.3128 43.3412Z" fill="#39E991"/>
<path d="M66.916 33.7725H82.006V36.3793H64.3088V23.7133H66.9157L66.916 33.7725ZM103.436 26.3687L88.3463 26.3688V28.7964L98.411 28.8339L98.4014 31.4408L88.3463 31.4033V33.8219H103.436V36.4288H85.7391V23.7627H103.436L103.436 26.3687ZM124.632 33.7725L124.671 36.3535L123.381 36.3728C123.18 36.3759 122.953 36.3793 122.706 36.3793C120.919 36.3793 118.054 36.2019 116.241 34.4162C115.38 33.5681 114.86 32.4739 114.685 31.1557C113.737 31.2938 112.693 31.3689 111.551 31.3689H109.729V36.3491H107.148V23.8074H109.729V28.7878H111.551C116.834 28.7878 119.599 26.9832 119.599 25.2004V23.9098H122.18V25.2003C122.18 27.3221 120.61 29.4568 117.218 30.5736C117.287 31.4347 117.561 32.0935 118.053 32.5777C119.347 33.8522 122.045 33.8118 123.342 33.7924L124.632 33.7725ZM131.497 26.428C131.254 26.5619 131.007 26.7867 131.007 27.4381C131.007 27.9458 131.171 28.2233 131.592 28.4275C132.019 28.634 132.494 28.6491 132.518 28.6497L141.993 28.6868C143.64 28.6868 146.097 29.7036 146.097 32.5051C146.097 35.3066 143.813 36.3235 142.278 36.3235H128.4V33.7167H142.266C142.38 33.7127 142.719 33.6699 142.999 33.5151C143.242 33.3811 143.489 33.1563 143.489 32.5051C143.489 31.9974 143.325 31.7198 142.904 31.5156C142.479 31.3097 142.004 31.2941 141.977 31.2934L132.508 31.2513V31.2564C130.857 31.2564 128.399 30.2395 128.399 27.438C128.399 24.6365 130.683 23.6196 132.218 23.6196H146.096V26.2265H132.23C132.116 26.2304 131.777 26.2732 131.497 26.428ZM152.389 36.4437H149.808V23.9019H152.389V36.4437ZM173.6 33.7725L173.639 36.3535L172.348 36.3728C172.148 36.3759 171.921 36.3793 171.674 36.3793C169.887 36.3793 167.022 36.2019 165.209 34.4162C164.348 33.5681 163.827 32.4739 163.653 31.1557C162.704 31.2938 161.661 31.3689 160.519 31.3689H158.697V36.3491H156.115V23.8074H158.697V28.7878H160.519C165.802 28.7878 168.567 26.9832 168.567 25.2004V23.9098H171.148V25.2003C171.148 27.3221 169.578 29.4568 166.185 30.5736C166.254 31.4347 166.529 32.0935 167.02 32.5777C168.314 33.8522 171.013 33.8118 172.31 33.7924L173.6 33.7725ZM186.435 23.104L196.625 36.6395H193.348L190.499 32.8671H182.371L179.564 36.6395H176.324L186.435 23.104ZM184.326 30.2599H188.544L186.435 27.4482L184.326 30.2599ZM201.916 35.9624L199.309 35.9624V33.3252H201.916L201.916 35.9624ZM223.335 23.6325L223.381 29.9617C223.4 31.3621 222.835 32.7217 221.79 33.7903C220.682 34.9232 218.525 36.2797 214.543 36.3091C214.504 36.3093 214.465 36.3095 214.427 36.3095C211.413 36.3095 208.895 35.4437 207.329 33.8656C206.252 32.7807 205.668 31.3985 205.685 29.9721L205.638 23.6521L208.245 23.6328L208.292 29.9803L208.292 29.9946C208.281 30.73 208.588 31.4333 209.179 32.0288C210.267 33.1251 212.164 33.7182 214.524 33.7021C216.931 33.6844 218.849 33.0683 219.927 31.967C220.492 31.3892 220.786 30.7072 220.775 29.9945V29.9852L220.728 23.652L223.335 23.6325ZM244.81 23.637V26.2956L232.18 33.6967H244.81V36.3035H227.112V33.6449L239.742 26.2436H227.112V23.6369L244.81 23.637Z" fill="white"/>
</svg>
